<svg width="70" height="72" viewBox="0 0 70 72" fill="none" xmlns="http://www.w3.org/2000/svg">
<circle cx="35.5" cy="36.5" r="31.5" fill="#7EEFFF"/>
<path d="M62.8467 41.4296C62.5865 42.775 62.3129 44.4727 61.7553 45.7264C61.7477 45.7439 61.7399 45.7614 61.7322 45.7789C61.5067 46.2881 61.2464 46.7967 60.9103 47.3932C60.8673 47.4694 60.8228 47.5471 60.7771 47.6262C60.3701 48.3284 59.8523 49.1772 59.0773 50.2741C56.4815 53.9466 53.9916 56.4253 53.2101 57.2118C51.633 58.7584 49.6811 60.1727 46.7482 61.5163C46.4795 61.6378 46.2006 61.7579 45.9151 61.8758C45.6829 61.9718 45.4411 61.9247 45.3768 61.7747C45.3126 61.6245 45.4457 61.4306 45.6722 61.3372C45.9459 61.2244 46.2126 61.1091 46.4696 60.9933C46.4708 60.9928 46.472 60.9923 46.4731 60.9917C49.3615 59.6712 51.2275 58.3134 52.7394 56.841C53.5229 56.0563 56.0268 53.579 58.6228 49.8914C59.3872 48.8053 59.8969 47.9635 60.2962 47.2705C60.3398 47.1945 60.3821 47.1202 60.4228 47.0477C60.4238 47.046 60.4248 47.0443 60.4258 47.0426C60.755 46.4548 60.9983 45.9754 61.2085 45.4991C61.2129 45.4889 61.2172 45.4787 61.2216 45.4685C61.7719 44.2272 62.0198 42.5931 62.2671 41.3167C62.3157 41.0727 62.4818 40.8961 62.6425 40.9242C62.803 40.9525 62.8964 41.1796 62.8467 41.4296ZM7.88572 25.4867C8.20492 24.0841 9.06832 22.3639 10.029 20.9899C10.9885 19.5967 12.0566 18.4981 12.5858 18.0167C13.1031 17.5437 13.6269 16.984 14.2717 16.3349C14.4196 16.1863 14.5739 16.033 14.7353 15.8765C15.2685 15.3597 15.8818 14.8042 16.6013 14.2536C19.2546 12.2453 21.1661 11.2407 22.5257 10.5269C22.8074 10.3823 23.0707 10.2513 23.3187 10.1321C23.3191 10.1319 23.3196 10.1317 23.32 10.1315C24.2582 9.68209 24.9789 9.38929 25.6723 9.20971C26.9042 8.89676 27.9309 8.70983 29.1749 8.63794C30.8891 8.52437 33.2438 8.21499 34.8167 7.99923C34.9028 7.98642 34.9911 7.97327 35.0807 7.96074C35.216 7.94182 35.3555 7.92331 35.5 7.90554C36.5745 7.77738 37.9019 7.66397 39.7884 7.82092C41.5642 7.97423 43.0809 8.36935 44.3767 8.81626C44.7494 8.94495 45.1006 9.0774 45.4348 9.20977C46.2817 9.54558 47.0198 9.88254 47.7197 10.1932C52.0552 12.1727 54.0446 14.2173 55.1927 15.4657C56.0664 16.4591 56.4349 17.1129 56.6999 17.5773C56.7793 17.7183 56.8478 17.8436 56.9151 17.9586C57.5134 18.9849 58.0848 19.8837 58.6969 21.0049C58.8319 21.2535 58.9684 21.5141 59.1052 21.789C59.5612 22.7077 59.933 23.3657 60.2424 23.8768C60.3773 24.1005 60.4992 24.297 60.6125 24.483C60.6147 24.4864 60.6169 24.4898 60.619 24.4932C60.6348 24.5191 60.6502 24.5449 60.6656 24.5705C60.6772 24.5898 60.6894 24.6088 60.701 24.6282C60.7074 24.6349 60.7125 24.6413 60.7165 24.6459C60.7197 24.6495 60.7222 24.6524 60.7237 24.6543C60.7241 24.6546 60.7245 24.6549 60.7249 24.6552C60.7533 24.6889 60.7728 24.7201 60.7769 24.7266C60.7839 24.7377 60.7895 24.748 60.7925 24.7531C60.8082 24.7805 60.8266 24.8165 60.8386 24.8406C60.8694 24.9025 60.922 25.0106 61 25.1794C61.0736 25.324 61.149 25.4607 61.242 25.6331C61.2479 25.6439 61.2538 25.6547 61.2596 25.6656C61.3498 25.8332 61.4536 26.0307 61.5745 26.2834C61.6848 26.5137 61.6574 26.7744 61.517 26.8621C61.3765 26.9497 61.179 26.8353 61.072 26.6102C60.9611 26.3767 60.8663 26.1953 60.7785 26.0306C60.7729 26.0202 60.7673 26.0098 60.7616 25.9994C60.67 25.8283 60.5812 25.6657 60.4921 25.489C60.4623 25.4299 60.4321 25.3687 60.4042 25.3114C60.3505 25.2098 60.2849 25.0964 60.2046 24.962C60.1884 24.935 60.1721 24.9071 60.155 24.8787C60.0451 24.6971 59.9145 24.4857 59.7715 24.247C59.4356 23.6886 59.0351 22.9759 58.5468 21.9978C58.4184 21.7411 58.2887 21.4948 58.1585 21.2559C57.5555 20.1542 56.954 19.2092 56.325 18.1442C56.2383 17.9981 56.1583 17.8547 56.0707 17.7021C55.8089 17.2517 55.4963 16.7057 54.703 15.8074C53.6272 14.6468 51.7318 12.6825 47.5118 10.7478C46.7929 10.4273 46.0211 10.0757 45.177 9.74285C44.856 9.61624 44.5236 9.49263 44.1807 9.3743C42.9311 8.94359 41.4926 8.56916 39.8128 8.41948C37.8922 8.25557 36.579 8.37846 35.5 8.51047C35.4286 8.51951 35.3584 8.52873 35.2891 8.53808C35.2505 8.54346 35.2119 8.54892 35.1734 8.55445C35.1255 8.56112 35.078 8.56787 35.031 8.57464C33.3859 8.79247 30.9353 9.11332 29.0798 9.24486C27.9132 9.31827 26.9514 9.4943 25.7522 9.80192C25.1604 9.95752 24.5568 10.1998 23.6539 10.6278C23.4011 10.7483 23.1252 10.8837 22.8205 11.0397C21.4641 11.75 19.5631 12.7493 16.9359 14.7423C16.2538 15.2658 15.6786 15.7861 15.1587 16.2893C14.9972 16.4456 14.8404 16.6009 14.6879 16.7542C14.0527 17.3931 13.4813 18.006 12.8976 18.545C12.4173 18.9861 11.4059 20.0299 10.4925 21.3599C9.56622 22.6914 8.79705 24.2544 8.51385 25.4619C8.48396 25.587 8.45428 25.7133 8.42568 25.8395C8.17741 26.9274 8.00023 28.0445 8.04556 28.9744C8.38469 31.1124 8.2125 33.7353 8.26335 36.5C8.29337 39.2853 8.58022 42.1673 9.19949 44.3872C9.21527 44.445 9.23125 44.5027 9.2474 44.5603C10.6938 49.6725 13.2307 52.7676 14.0275 53.7751C14.0662 53.8227 14.1015 53.8658 14.1333 53.9045C14.1617 53.939 14.1878 53.97 14.2105 53.9975C14.5522 54.4099 14.8798 54.753 15.2309 55.1033C15.25 55.1224 15.2693 55.1415 15.2885 55.1605C15.6611 55.5293 16.059 55.9074 16.5261 56.357C18.2683 58.0271 19.9036 59.146 21.3673 59.9989C21.6387 60.1563 21.9052 60.3051 22.1676 60.4456C22.1684 60.4461 22.1692 60.4465 22.1699 60.4469C23.3211 61.0621 24.3819 61.5287 25.3994 61.9338C27.2603 62.6664 28.5903 62.9552 29.6178 63.1449C29.9426 63.2032 30.2406 63.2495 30.5232 63.2891C31.1354 63.3744 31.6706 63.4301 32.2226 63.4885C33.2623 63.5973 34.2247 63.6141 35.1711 63.5863C35.2557 63.5838 35.3402 63.5812 35.4248 63.578C35.4499 63.577 35.4749 63.576 35.5 63.575C36.5041 63.5331 37.4862 63.4438 38.5199 63.3284C38.7663 63.3009 38.9865 63.4059 39.013 63.5671C39.0391 63.7281 38.8567 63.8855 38.6043 63.9139C37.5526 64.0318 36.5513 64.1246 35.5001 64.1678C35.5 64.1678 35.5 64.1678 35.5 64.1678C35.4132 64.1713 35.326 64.1748 35.2388 64.1775C34.2738 64.2076 33.2731 64.1915 32.1914 64.0795C31.647 64.0224 31.1315 63.9698 30.5174 63.8861C30.2247 63.8458 29.9128 63.7987 29.5625 63.7364C28.4957 63.5415 27.1189 63.2446 25.1984 62.4901C24.1712 62.0818 23.1005 61.6123 21.9244 60.9861C21.6544 60.842 21.379 60.6894 21.0982 60.527C19.5982 59.6553 17.918 58.5083 16.1278 56.7942C15.6768 56.3604 15.2908 55.9952 14.9112 55.621C14.89 55.5999 14.8688 55.5788 14.8476 55.5577C14.4915 55.2038 14.1371 54.8351 13.7681 54.3904C13.7189 54.331 13.6565 54.2548 13.5817 54.1629C12.7661 53.133 10.1614 49.9613 8.67834 44.7187C8.6739 44.7026 8.66948 44.6864 8.66508 44.6702C7.72219 41.1633 7.69183 39.1067 7.46358 37.576C7.41245 37.1911 7.37878 36.8332 7.35721 36.5C7.31138 35.7842 7.31918 35.2021 7.34189 34.6863C7.34829 34.5428 7.35539 34.4072 7.36337 34.2782C7.39818 33.7222 7.43949 33.2818 7.45507 32.8386C7.50793 31.4991 7.49886 30.5182 7.42151 29.2774C7.3585 28.2197 7.55392 26.9642 7.79775 25.8732C7.79812 25.8715 7.79849 25.8699 7.79886 25.8683C7.82751 25.7386 7.85676 25.6112 7.88572 25.4867ZM63.0686 29.6952C63.126 29.9487 63.0395 30.1825 62.8801 30.2161C62.7204 30.2495 62.549 30.0746 62.493 29.8272C62.3595 29.2362 62.2057 28.6471 62.0332 28.0655C61.9608 27.8211 62.0238 27.584 62.179 27.534C62.3342 27.4842 62.5245 27.6454 62.5989 27.8959C62.7751 28.4898 62.9322 29.0917 63.0686 29.6952ZM4.71504 25.5661C4.78125 25.2802 4.98108 25.0422 5.15383 25.0375C5.32652 25.0328 5.407 25.2579 5.34016 25.5382C5.30495 25.6863 5.25037 25.9312 5.18373 26.2618C4.837 27.9427 4.21076 31.8979 4.59891 36.5C4.74823 38.3882 5.05046 40.3758 5.5105 42.3504C5.64305 42.92 5.78044 43.4309 5.92066 43.9086C6.56675 45.9486 7.37683 47.4907 9.25389 51.0335C14.3077 60.4183 24.6068 66.9529 35.5 66.953C41.848 67.0332 48.2217 64.9515 53.2204 61.0843C57.1257 58.0822 60.3439 54.2484 62.529 49.8563C64.6068 46.2894 66.1248 38.8121 65.9801 37.0034C65.9895 36.7236 66.1253 36.4975 66.2885 36.5C66.4514 36.5026 66.5799 36.7376 66.5703 37.0234C66.7169 38.8523 65.1829 46.4528 63.0781 50.0797C60.8606 54.553 57.5934 58.4584 53.6254 61.5201C48.5235 65.4807 42.0453 67.7208 35.5 67.7657C24.3317 67.9993 13.3799 61.4719 8.09985 51.6473C6.1536 47.9619 6.03021 46.1979 5.37214 44.1427C5.22776 43.6549 5.08558 43.1328 4.94778 42.5459C4.46723 40.5024 4.15375 38.4465 4.00082 36.5C3.62079 31.9525 4.21139 28.0466 4.5534 26.3341C4.62141 25.9862 4.67793 25.726 4.71504 25.5661ZM12.1767 13.9907C14.4175 11.5408 18.2894 8.70402 22.0821 7.10083C23.9184 6.29666 25.7004 5.73601 27.1396 5.36651C29.3775 4.8008 30.8431 4.74678 32.2756 4.73508C32.2909 4.73501 32.3062 4.73495 32.3215 4.7349C33.2912 4.73654 34.2573 4.77009 35.5 4.82556C36.0892 4.85291 36.7292 4.88677 37.466 4.9387C39.7739 5.09013 42.9735 5.50357 46.073 6.50797C46.0754 6.50882 46.0778 6.50966 46.0802 6.5105C49.1579 7.47473 52.262 8.77909 54.2062 10.2106C60.9838 15.2771 62.9538 20.4399 63.8112 22.7669C65.2691 26.9415 67.0341 31.8148 66.3216 36.3526C66.1639 36.8449 65.7268 36.0168 65.8154 35.1291C65.8176 35.0968 65.8198 35.0646 65.8219 35.0323C65.8409 34.7242 65.8523 34.4513 65.845 34.0716C65.8197 33.5231 65.776 33.1151 65.7316 32.7434C65.7921 31.7401 64.223 25.0985 63.2026 22.837C62.3744 20.6517 59.9354 16.1184 53.4288 11.2615C51.6163 9.92826 49.0067 8.0601 45.9471 7.08978C45.9388 7.08709 45.9305 7.08441 45.9222 7.08173C42.9047 6.09926 39.7359 5.67978 37.4327 5.529C36.7123 5.478 36.0818 5.44448 35.5 5.41774C34.201 5.36038 33.2005 5.32862 32.2181 5.33012C32.2042 5.33011 32.1903 5.3301 32.1764 5.3301C30.7839 5.34577 29.4102 5.40222 27.2953 5.9361C25.8515 6.30635 24.083 6.86666 22.2703 7.66414C18.567 9.23921 14.8195 11.9865 12.6339 14.3674C12.4342 14.5791 12.1716 14.6714 12.0433 14.5698C11.9153 14.4681 11.9732 14.2073 12.1767 13.9907ZM9.58151 11.3799C15.8217 3.94447 25.98 -0.188987 35.5 0.489357C36.217 0.532574 36.9209 0.599018 37.6266 0.688582C40.2734 0.849914 43.9589 1.48445 47.4241 2.77833C47.4632 2.79291 47.5022 2.80755 47.5412 2.82227C50.9769 4.08199 54.1217 5.94919 56.2122 7.48902C63.6774 13.0674 66.1614 18.6226 67.1533 21.2253C68.0125 23.7503 68.1968 24.4468 68.5559 25.4703C68.565 25.4984 68.5741 25.5265 68.5831 25.5546C68.5842 25.5563 68.5853 25.558 68.5863 25.5597C68.6052 25.5926 68.6191 25.6209 68.6259 25.6356C68.6397 25.6655 68.6494 25.6905 68.653 25.6998C68.6613 25.7214 68.6674 25.7398 68.6696 25.7463C68.6787 25.773 68.6885 25.8037 68.6945 25.8236C68.752 26.0093 68.9141 26.5898 69.019 27.0575C69.1274 27.5364 69.1832 27.8841 69.2359 28.2479C69.2411 28.2849 69.2463 28.3218 69.2514 28.3587C69.2972 28.6877 69.3444 29.0465 69.4111 29.5621C69.4512 29.8747 69.3444 30.1218 69.1787 30.1136C69.0129 30.105 68.851 29.8512 68.8104 29.5435C68.7399 29.0102 68.689 28.6357 68.6426 28.311C68.6375 28.275 68.6323 28.239 68.6271 28.203C68.5764 27.8613 68.5252 27.5578 68.4306 27.1411C68.279 26.5415 68.1408 26.1028 68.0094 25.7028C67.6453 24.6607 67.4323 23.8697 66.5349 21.2727C65.5877 18.8584 63.2513 13.5048 55.8714 7.9713C53.8121 6.45346 50.7156 4.61546 47.34 3.37743C47.3005 3.36281 47.261 3.34825 47.2215 3.33376C43.8121 2.06075 40.1931 1.43735 37.5954 1.27826C36.8958 1.23133 36.2024 1.20695 35.5 1.20422C26.0287 1.15235 16.9462 5.1953 10.0422 11.753C8.74249 13.1239 7.65436 14.4675 6.72566 15.7679C4.01127 19.6074 2.57838 23.0213 1.92348 26.3797C1.79017 27.1156 1.27856 29.0144 0.981907 31.8093C0.896112 32.629 0.830312 33.5258 0.802889 34.5013C0.785124 35.1376 0.783801 35.8002 0.804001 36.5C0.859497 38.4126 1.07919 40.5449 1.57561 42.8123C1.717 43.4573 1.86445 44.0362 2.01596 44.5793C2.71431 46.8861 3.21989 48.7497 5.3349 52.8349C7.77023 58.0067 14.7136 64.8367 19.3608 67.0879C21.6052 68.324 22.963 68.8573 23.9124 69.2494C24.1777 69.3561 24.4124 69.448 24.6289 69.5302C25.1962 69.7444 25.6369 69.8995 26.2273 70.0776C29.5086 71.0365 32.1575 71.3566 35.5 71.2999C36.5004 71.2756 37.5554 71.2059 38.7098 71.067C39.0226 71.0295 39.3125 71.1231 39.3546 71.2823C39.3972 71.4414 39.1694 71.6078 38.851 71.6469C37.6469 71.7942 36.545 71.8677 35.5 71.8925C32.1189 71.9484 29.3996 71.6226 26.0425 70.6392C25.416 70.45 24.9356 70.2795 24.3494 70.0566C24.1326 69.9738 23.9023 69.8834 23.6465 69.7801C22.6972 69.3863 21.3315 68.8489 19.061 67.5973C14.3436 65.3096 7.29427 58.3733 4.82201 53.1293C2.68973 49.0153 2.1816 47.1568 1.46832 44.8205C1.31269 44.268 1.15981 43.6754 1.01339 43.0145C0.495069 40.6722 0.267362 38.4692 0.211171 36.5C0.191793 35.8189 0.192565 35.1715 0.208678 34.5518C0.234732 33.5603 0.299435 32.6517 0.384705 31.8204C0.690286 28.9203 1.18558 27.1071 1.29461 26.464C1.95971 22.9264 3.48626 19.3035 6.28155 15.3719C7.21773 14.0658 8.30425 12.7303 9.58151 11.3799ZM55.7042 64.8932C55.4493 65.0852 55.1496 65.138 55.0392 65.0162C54.9289 64.8941 55.0456 64.6467 55.2959 64.4589C56.6183 63.4635 57.5005 62.6651 58.1753 62.0301C59.4149 60.8436 59.966 60.2257 60.8054 59.3149C62.9595 56.9496 64.6832 54.352 65.9397 51.8717C68.0463 47.7404 68.8433 43.9963 69.1922 42.0406C69.2477 41.7314 69.4182 41.5033 69.5793 41.5298C69.74 41.5564 69.8296 41.8322 69.7731 42.1473C69.42 44.1228 68.6172 47.9039 66.4888 52.0945C65.2125 54.6227 63.4582 57.2774 61.2544 59.6999C60.4266 60.5988 59.8984 61.193 58.6697 62.3774C57.9862 63.0248 57.0832 63.8508 55.7042 64.8932Z" fill="black"/>
<path d="M62.8467 41.4296C62.5865 42.775 62.3129 44.4727 61.7553 45.7264C61.7477 45.7439 61.7399 45.7614 61.7322 45.7789C61.5067 46.2881 61.2464 46.7967 60.9103 47.3932C60.8673 47.4694 60.8228 47.5471 60.7771 47.6262C60.3701 48.3284 59.8523 49.1772 59.0773 50.2741C56.4815 53.9466 53.9916 56.4253 53.2101 57.2118C51.633 58.7584 49.6811 60.1727 46.7482 61.5163C46.4795 61.6378 46.2006 61.7579 45.9151 61.8758C45.6829 61.9718 45.4411 61.9247 45.3768 61.7747C45.3126 61.6245 45.4457 61.4306 45.6722 61.3372C45.9459 61.2244 46.2126 61.1091 46.4696 60.9933C46.4708 60.9928 46.472 60.9923 46.4731 60.9917C49.3615 59.6712 51.2275 58.3134 52.7394 56.841C53.5229 56.0563 56.0268 53.579 58.6228 49.8914C59.3872 48.8053 59.8969 47.9635 60.2962 47.2705C60.3398 47.1945 60.3821 47.1202 60.4228 47.0477C60.4238 47.046 60.4248 47.0443 60.4258 47.0426C60.755 46.4548 60.9983 45.9754 61.2085 45.4991C61.2129 45.4889 61.2172 45.4787 61.2216 45.4685C61.7719 44.2272 62.0198 42.5931 62.2671 41.3167C62.3157 41.0727 62.4818 40.8961 62.6425 40.9242C62.803 40.9525 62.8964 41.1796 62.8467 41.4296ZM7.88572 25.4867C8.20492 24.0841 9.06832 22.3639 10.029 20.9899C10.9885 19.5967 12.0566 18.4981 12.5858 18.0167C13.1031 17.5437 13.6269 16.984 14.2717 16.3349C14.4196 16.1863 14.5739 16.033 14.7353 15.8765C15.2685 15.3597 15.8818 14.8042 16.6013 14.2536C19.2546 12.2453 21.1661 11.2407 22.5257 10.5269C22.8074 10.3823 23.0707 10.2513 23.3187 10.1321C23.3191 10.1319 23.3196 10.1317 23.32 10.1315C24.2582 9.68209 24.9789 9.38929 25.6723 9.20971C26.9042 8.89676 27.9309 8.70983 29.1749 8.63794C30.8891 8.52437 33.2438 8.21499 34.8167 7.99923C34.9028 7.98642 34.9911 7.97327 35.0807 7.96074C35.216 7.94182 35.3555 7.92331 35.5 7.90554C36.5745 7.77738 37.9019 7.66397 39.7884 7.82092C41.5642 7.97423 43.0809 8.36935 44.3767 8.81626C44.7494 8.94495 45.1006 9.0774 45.4348 9.20977C46.2817 9.54558 47.0198 9.88254 47.7197 10.1932C52.0552 12.1727 54.0446 14.2173 55.1927 15.4657C56.0664 16.4591 56.4349 17.1129 56.6999 17.5773C56.7793 17.7183 56.8478 17.8436 56.9151 17.9586C57.5134 18.9849 58.0848 19.8837 58.6969 21.0049C58.8319 21.2535 58.9684 21.5141 59.1052 21.789C59.5612 22.7077 59.933 23.3657 60.2424 23.8768C60.3773 24.1005 60.4992 24.297 60.6125 24.483C60.6147 24.4864 60.6169 24.4898 60.619 24.4932C60.6348 24.5191 60.6502 24.5449 60.6656 24.5705C60.6772 24.5898 60.6894 24.6088 60.701 24.6282C60.7074 24.6349 60.7125 24.6413 60.7165 24.6459C60.7197 24.6495 60.7222 24.6524 60.7237 24.6543C60.7241 24.6546 60.7245 24.6549 60.7249 24.6552C60.7533 24.6889 60.7728 24.7201 60.7769 24.7266C60.7839 24.7377 60.7895 24.748 60.7925 24.7531C60.8082 24.7805 60.8266 24.8165 60.8386 24.8406C60.8694 24.9025 60.922 25.0106 61 25.1794C61.0736 25.324 61.149 25.4607 61.242 25.6331C61.2479 25.6439 61.2538 25.6547 61.2596 25.6656C61.3498 25.8332 61.4536 26.0307 61.5745 26.2834C61.6848 26.5137 61.6574 26.7744 61.517 26.8621C61.3765 26.9497 61.179 26.8353 61.072 26.6102C60.9611 26.3767 60.8663 26.1953 60.7785 26.0306C60.7729 26.0202 60.7673 26.0098 60.7616 25.9994C60.67 25.8283 60.5812 25.6657 60.4921 25.489C60.4623 25.4299 60.4321 25.3687 60.4042 25.3114C60.3505 25.2098 60.2849 25.0964 60.2046 24.962C60.1884 24.935 60.1721 24.9071 60.155 24.8787C60.0451 24.6971 59.9145 24.4857 59.7715 24.247C59.4356 23.6886 59.0351 22.9759 58.5468 21.9978C58.4184 21.7411 58.2887 21.4948 58.1585 21.2559C57.5555 20.1542 56.954 19.2092 56.325 18.1442C56.2383 17.9981 56.1583 17.8547 56.0707 17.7021C55.8089 17.2517 55.4963 16.7057 54.703 15.8074C53.6272 14.6468 51.7318 12.6825 47.5118 10.7478C46.7929 10.4273 46.0211 10.0757 45.177 9.74285C44.856 9.61624 44.5236 9.49263 44.1807 9.3743C42.9311 8.94359 41.4926 8.56916 39.8128 8.41948C37.8922 8.25557 36.579 8.37846 35.5 8.51047C35.4286 8.51951 35.3584 8.52873 35.2891 8.53808C35.2505 8.54346 35.2119 8.54892 35.1734 8.55445C35.1255 8.56112 35.078 8.56787 35.031 8.57464C33.3859 8.79247 30.9353 9.11332 29.0798 9.24486C27.9132 9.31827 26.9514 9.4943 25.7522 9.80192C25.1604 9.95752 24.5568 10.1998 23.6539 10.6278C23.4011 10.7483 23.1252 10.8837 22.8205 11.0397C21.4641 11.75 19.5631 12.7493 16.9359 14.7423C16.2538 15.2658 15.6786 15.7861 15.1587 16.2893C14.9972 16.4456 14.8404 16.6009 14.6879 16.7542C14.0527 17.3931 13.4813 18.006 12.8976 18.545C12.4173 18.9861 11.4059 20.0299 10.4925 21.3599C9.56622 22.6914 8.79705 24.2544 8.51385 25.4619C8.48396 25.587 8.45428 25.7133 8.42568 25.8395C8.17741 26.9274 8.00023 28.0445 8.04556 28.9744C8.38469 31.1124 8.2125 33.7353 8.26335 36.5C8.29337 39.2853 8.58022 42.1673 9.19949 44.3872C9.21527 44.445 9.23125 44.5027 9.2474 44.5603C10.6938 49.6725 13.2307 52.7676 14.0275 53.7751C14.0662 53.8227 14.1015 53.8658 14.1333 53.9045C14.1617 53.939 14.1878 53.97 14.2105 53.9975C14.5522 54.4099 14.8798 54.753 15.2309 55.1033C15.25 55.1224 15.2693 55.1415 15.2885 55.1605C15.6611 55.5293 16.059 55.9074 16.5261 56.357C18.2683 58.0271 19.9036 59.146 21.3673 59.9989C21.6387 60.1563 21.9052 60.3051 22.1676 60.4456C22.1684 60.4461 22.1692 60.4465 22.1699 60.4469C23.3211 61.0621 24.3819 61.5287 25.3994 61.9338C27.2603 62.6664 28.5903 62.9552 29.6178 63.1449C29.9426 63.2032 30.2406 63.2495 30.5232 63.2891C31.1354 63.3744 31.6706 63.4301 32.2226 63.4885C33.2623 63.5973 34.2247 63.6141 35.1711 63.5863C35.2557 63.5838 35.3402 63.5812 35.4248 63.578C35.4499 63.577 35.4749 63.576 35.5 63.575C36.5041 63.5331 37.4862 63.4438 38.5199 63.3284C38.7663 63.3009 38.9865 63.4059 39.013 63.5671C39.0391 63.7281 38.8567 63.8855 38.6043 63.9139C37.5526 64.0318 36.5513 64.1246 35.5001 64.1678C35.5 64.1678 35.5 64.1678 35.5 64.1678C35.4132 64.1713 35.326 64.1748 35.2388 64.1775C34.2738 64.2076 33.2731 64.1915 32.1914 64.0795C31.647 64.0224 31.1315 63.9698 30.5174 63.8861C30.2247 63.8458 29.9128 63.7987 29.5625 63.7364C28.4957 63.5415 27.1189 63.2446 25.1984 62.4901C24.1712 62.0818 23.1005 61.6123 21.9244 60.9861C21.6544 60.842 21.379 60.6894 21.0982 60.527C19.5982 59.6553 17.918 58.5083 16.1278 56.7942C15.6768 56.3604 15.2908 55.9952 14.9112 55.621C14.89 55.5999 14.8688 55.5788 14.8476 55.5577C14.4915 55.2038 14.1371 54.8351 13.7681 54.3904C13.7189 54.331 13.6565 54.2548 13.5817 54.1629C12.7661 53.133 10.1614 49.9613 8.67834 44.7187C8.6739 44.7026 8.66948 44.6864 8.66508 44.6702C7.72219 41.1633 7.69183 39.1067 7.46358 37.576C7.41245 37.1911 7.37878 36.8332 7.35721 36.5C7.31138 35.7842 7.31918 35.2021 7.34189 34.6863C7.34829 34.5428 7.35539 34.4072 7.36337 34.2782C7.39818 33.7222 7.43949 33.2818 7.45507 32.8386C7.50793 31.4991 7.49886 30.5182 7.42151 29.2774C7.3585 28.2197 7.55392 26.9642 7.79775 25.8732C7.79812 25.8715 7.79849 25.8699 7.79886 25.8683C7.82751 25.7386 7.85676 25.6112 7.88572 25.4867ZM63.0686 29.6952C63.126 29.9487 63.0395 30.1825 62.8801 30.2161C62.7204 30.2495 62.549 30.0746 62.493 29.8272C62.3595 29.2362 62.2057 28.6471 62.0332 28.0655C61.9608 27.8211 62.0238 27.584 62.179 27.534C62.3342 27.4842 62.5245 27.6454 62.5989 27.8959C62.7751 28.4898 62.9322 29.0917 63.0686 29.6952ZM4.71504 25.5661C4.78125 25.2802 4.98108 25.0422 5.15383 25.0375C5.32652 25.0328 5.407 25.2579 5.34016 25.5382C5.30495 25.6863 5.25037 25.9312 5.18373 26.2618C4.837 27.9427 4.21076 31.8979 4.59891 36.5C4.74823 38.3882 5.05046 40.3758 5.5105 42.3504C5.64305 42.92 5.78044 43.4309 5.92066 43.9086C6.56675 45.9486 7.37683 47.4907 9.25389 51.0335C14.3077 60.4183 24.6068 66.9529 35.5 66.953C41.848 67.0332 48.2217 64.9515 53.2204 61.0843C57.1257 58.0822 60.3439 54.2484 62.529 49.8563C64.6068 46.2894 66.1248 38.8121 65.9801 37.0034C65.9895 36.7236 66.1253 36.4975 66.2885 36.5C66.4514 36.5026 66.5799 36.7376 66.5703 37.0234C66.7169 38.8523 65.1829 46.4528 63.0781 50.0797C60.8606 54.553 57.5934 58.4584 53.6254 61.5201C48.5235 65.4807 42.0453 67.7208 35.5 67.7657C24.3317 67.9993 13.3799 61.4719 8.09985 51.6473C6.1536 47.9619 6.03021 46.1979 5.37214 44.1427C5.22776 43.6549 5.08558 43.1328 4.94778 42.5459C4.46723 40.5024 4.15375 38.4465 4.00082 36.5C3.62079 31.9525 4.21139 28.0466 4.5534 26.3341C4.62141 25.9862 4.67793 25.726 4.71504 25.5661ZM12.1767 13.9907C14.4175 11.5408 18.2894 8.70402 22.0821 7.10083C23.9184 6.29666 25.7004 5.73601 27.1396 5.36651C29.3775 4.8008 30.8431 4.74678 32.2756 4.73508C32.2909 4.73501 32.3062 4.73495 32.3215 4.7349C33.2912 4.73654 34.2573 4.77009 35.5 4.82556C36.0892 4.85291 36.7292 4.88677 37.466 4.9387C39.7739 5.09013 42.9735 5.50357 46.073 6.50797C46.0754 6.50882 46.0778 6.50966 46.0802 6.5105C49.1579 7.47473 52.262 8.77909 54.2062 10.2106C60.9838 15.2771 62.9538 20.4399 63.8112 22.7669C65.2691 26.9415 67.0341 31.8148 66.3216 36.3526C66.1639 36.8449 65.7268 36.0168 65.8154 35.1291C65.8176 35.0968 65.8198 35.0646 65.8219 35.0323C65.8409 34.7242 65.8523 34.4513 65.845 34.0716C65.8197 33.5231 65.776 33.1151 65.7316 32.7434C65.7921 31.7401 64.223 25.0985 63.2026 22.837C62.3744 20.6517 59.9354 16.1184 53.4288 11.2615C51.6163 9.92826 49.0067 8.0601 45.9471 7.08978C45.9388 7.08709 45.9305 7.08441 45.9222 7.08173C42.9047 6.09926 39.7359 5.67978 37.4327 5.529C36.7123 5.478 36.0818 5.44448 35.5 5.41774C34.201 5.36038 33.2005 5.32862 32.2181 5.33012C32.2042 5.33011 32.1903 5.3301 32.1764 5.3301C30.7839 5.34577 29.4102 5.40222 27.2953 5.9361C25.8515 6.30635 24.083 6.86666 22.2703 7.66414C18.567 9.23921 14.8195 11.9865 12.6339 14.3674C12.4342 14.5791 12.1716 14.6714 12.0433 14.5698C11.9153 14.4681 11.9732 14.2073 12.1767 13.9907ZM9.58151 11.3799C15.8217 3.94447 25.98 -0.188987 35.5 0.489357C36.217 0.532574 36.9209 0.599018 37.6266 0.688582C40.2734 0.849914 43.9589 1.48445 47.4241 2.77833C47.4632 2.79291 47.5022 2.80755 47.5412 2.82227C50.9769 4.08199 54.1217 5.94919 56.2122 7.48902C63.6774 13.0674 66.1614 18.6226 67.1533 21.2253C68.0125 23.7503 68.1968 24.4468 68.5559 25.4703C68.565 25.4984 68.5741 25.5265 68.5831 25.5546C68.5842 25.5563 68.5853 25.558 68.5863 25.5597C68.6052 25.5926 68.6191 25.6209 68.6259 25.6356C68.6397 25.6655 68.6494 25.6905 68.653 25.6998C68.6613 25.7214 68.6674 25.7398 68.6696 25.7463C68.6787 25.773 68.6885 25.8037 68.6945 25.8236C68.752 26.0093 68.9141 26.5898 69.019 27.0575C69.1274 27.5364 69.1832 27.8841 69.2359 28.2479C69.2411 28.2849 69.2463 28.3218 69.2514 28.3587C69.2972 28.6877 69.3444 29.0465 69.4111 29.5621C69.4512 29.8747 69.3444 30.1218 69.1787 30.1136C69.0129 30.105 68.851 29.8512 68.8104 29.5435C68.7399 29.0102 68.689 28.6357 68.6426 28.311C68.6375 28.275 68.6323 28.239 68.6271 28.203C68.5764 27.8613 68.5252 27.5578 68.4306 27.1411C68.279 26.5415 68.1408 26.1028 68.0094 25.7028C67.6453 24.6607 67.4323 23.8697 66.5349 21.2727C65.5877 18.8584 63.2513 13.5048 55.8714 7.9713C53.8121 6.45346 50.7156 4.61546 47.34 3.37743C47.3005 3.36281 47.261 3.34825 47.2215 3.33376C43.8121 2.06075 40.1931 1.43735 37.5954 1.27826C36.8958 1.23133 36.2024 1.20695 35.5 1.20422C26.0287 1.15235 16.9462 5.1953 10.0422 11.753C8.74249 13.1239 7.65436 14.4675 6.72566 15.7679C4.01127 19.6074 2.57838 23.0213 1.92348 26.3797C1.79017 27.1156 1.27856 29.0144 0.981907 31.8093C0.896112 32.629 0.830312 33.5258 0.802889 34.5013C0.785124 35.1376 0.783801 35.8002 0.804001 36.5C0.859497 38.4126 1.07919 40.5449 1.57561 42.8123C1.717 43.4573 1.86445 44.0362 2.01596 44.5793C2.71431 46.8861 3.21989 48.7497 5.3349 52.8349C7.77023 58.0067 14.7136 64.8367 19.3608 67.0879C21.6052 68.324 22.963 68.8573 23.9124 69.2494C24.1777 69.3561 24.4124 69.448 24.6289 69.5302C25.1962 69.7444 25.6369 69.8995 26.2273 70.0776C29.5086 71.0365 32.1575 71.3566 35.5 71.2999C36.5004 71.2756 37.5554 71.2059 38.7098 71.067C39.0226 71.0295 39.3125 71.1231 39.3546 71.2823C39.3972 71.4414 39.1694 71.6078 38.851 71.6469C37.6469 71.7942 36.545 71.8677 35.5 71.8925C32.1189 71.9484 29.3996 71.6226 26.0425 70.6392C25.416 70.45 24.9356 70.2795 24.3494 70.0566C24.1326 69.9738 23.9023 69.8834 23.6465 69.7801C22.6972 69.3863 21.3315 68.8489 19.061 67.5973C14.3436 65.3096 7.29427 58.3733 4.82201 53.1293C2.68973 49.0153 2.1816 47.1568 1.46832 44.8205C1.31269 44.268 1.15981 43.6754 1.01339 43.0145C0.495069 40.6722 0.267362 38.4692 0.211171 36.5C0.191793 35.8189 0.192565 35.1715 0.208678 34.5518C0.234732 33.5603 0.299435 32.6517 0.384705 31.8204C0.690286 28.9203 1.18558 27.1071 1.29461 26.464C1.95971 22.9264 3.48626 19.3035 6.28155 15.3719C7.21773 14.0658 8.30425 12.7303 9.58151 11.3799ZM55.7042 64.8932C55.4493 65.0852 55.1496 65.138 55.0392 65.0162C54.9289 64.8941 55.0456 64.6467 55.2959 64.4589C56.6183 63.4635 57.5005 62.6651 58.1753 62.0301C59.4149 60.8436 59.966 60.2257 60.8054 59.3149C62.9595 56.9496 64.6832 54.352 65.9397 51.8717C68.0463 47.7404 68.8433 43.9963 69.1922 42.0406C69.2477 41.7314 69.4182 41.5033 69.5793 41.5298C69.74 41.5564 69.8296 41.8322 69.7731 42.1473C69.42 44.1228 68.6172 47.9039 66.4888 52.0945C65.2125 54.6227 63.4582 57.2774 61.2544 59.6999C60.4266 60.5988 59.8984 61.193 58.6697 62.3774C57.9862 63.0248 57.0832 63.8508 55.7042 64.8932Z" fill="#2C3E50"/>
<path d="M26.26 49V45.868L36.268 36.364C37.108 35.572 37.732 34.876 38.14 34.276C38.548 33.676 38.812 33.124 38.932 32.62C39.076 32.092 39.148 31.6 39.148 31.144C39.148 29.992 38.752 29.104 37.96 28.48C37.168 27.832 36.004 27.508 34.468 27.508C33.244 27.508 32.128 27.724 31.12 28.156C30.136 28.588 29.284 29.248 28.564 30.136L25.288 27.616C26.272 26.296 27.592 25.276 29.248 24.556C30.928 23.812 32.8 23.44 34.864 23.44C36.688 23.44 38.272 23.74 39.616 24.34C40.984 24.916 42.028 25.744 42.748 26.824C43.492 27.904 43.864 29.188 43.864 30.676C43.864 31.492 43.756 32.308 43.54 33.124C43.324 33.916 42.916 34.756 42.316 35.644C41.716 36.532 40.84 37.528 39.688 38.632L31.084 46.804L30.112 45.04H44.836V49H26.26Z" fill="#2C3E50"/>
</svg>
